<svg xmlns="http://www.w3.org/2000/svg" xmlns:xlink="http://www.w3.org/1999/xlink" width="73.52001953125" height="19.4404296875" viewBox="0 0 73.52001953125 19.4404296875" fill="none"><g opacity="1"  transform="translate(0 0)  rotate(0)"><mask id="bg-mask-0" fill="white"><use transform="translate(0 0)  rotate(0)" xlink:href="#path_0"></use></mask><g mask="url(#bg-mask-0)" ><g opacity="1"  transform="translate(0.038818359375 0)  rotate(0)"><path id="路径 1" fill-rule="evenodd" style="fill:#2B94FE" opacity="1" d="M22.08,4.35999c3.92,0.35999 6.96,3.63998 6.96,7.52001c0,4.1999 -3.4,7.5199 -7.6,7.5199h-0.92c-2.52,-1.2 -4.84,-2.72 -6.88,-4.7999c0.8,2.0399 1.64,3.5999 2.56,4.7999h-1.56c-0.72,-1.44 -1.2,-3.04 -1.6,-4.7999c-0.92,1.6799 -1.12,3.2799 -0.68,4.7999h-8.12c-2.96,-0.52 -4.64,-3.16 -4.16,-6.2799c0.52,-3.24003 2.52,-4.80003 5.12,-5.64003c0.96,1.64 2.28,2.72003 3.96,3.32003c1.24,0.48 2.16,0.6 3.44,0.96c-0.6,-0.36 -1.16,-0.48 -1.6,-0.64c-1.6,-0.6 -2.64,-1.24003 -3.6,-2.88003c-0.64,-1.11999 -1.08,-2.31999 -1.32,-3.59999c0.32,-0.71999 0.72,-1.39999 1.24,-1.99999c-0.08,1.12 0.04,2.27999 0.32,3.39999c0.36,1.55999 1.32,2.91999 2.8,4.00002c-1.72,-3.76002 -0.84,-6.96001 1.44,-9.88c0.68,-0.12 1.36,-0.16 2.16,-0.16c-0.6,0.68 -1.2,1.4 -1.76,2.19999c-1.2,1.72 -2.16,4.15999 -1.64,6.19998c0.6,-2.63999 2.24,-4.55998 3.64,-5.71998c1.04,-0.84 2.08,-1.55999 3.16,-2.19999c1.92,0.64 3.48,1.87999 4.64,3.87999zM12.28,14.68c-1.32,0 -2.84,0.1999 -4.52,0.1999c0.96,0.36 1.6,0.56 2.08,1.12c0.52,0.56 0.76,1.48 0.96,2.44c0.36,-1.12 0.92,-2.64 1.48,-3.7599zM16.64,14.36c-0.28,-0.72 -0.96,-0.96 -1.64,-1.16c-1.32,-0.4 -2.6,-0.68 -3.96,-0.96c-2.32,-0.44 -4.44,-1.24 -6.16,-3.00003c-0.36,-0.32 -0.16,-0.16 -0.52,-0.6c0.16,0.96 0.32,1.32 0.52,1.84003c0.52,1.4 1.32,2.64 2.84,2.92c1.16,0.24 2.36,0.24 3.56,0.36c1.16,0.12 2.36,0.16 3.56,0.36c0.72,0.12 1.2,0.6399 1.2,1.5999c0.56,-0.32 0.76,-0.88 0.6,-1.3599z"></path><g opacity="1"  transform="translate(33.2412109375 0.560546875)  rotate(0)"><path id="路径 2" fill-rule="evenodd" style="fill:#2B94FE" opacity="1" d="M27.7199,7.35938c0.08,0 0.12,0.03999 0.12,0.11999v5.63993c0,0.08 -0.04,0.12 -0.12,0.12h-7.16c-0.08,0 -0.12,-0.04 -0.12,-0.12v-5.63993c0,-0.08 0.04,-0.11999 0.12,-0.11999zM26.2399,9.07936c0,-0.08 -0.04,-0.12 -0.12,-0.12h-3.96c-0.08,0 -0.12,0.04 -0.12,0.12v2.31994c0,0.08 0.04,0.12 0.12,0.12h3.96c0.08,0 0.12,-0.04 0.12,-0.12z"></path><path id="路径 3" fill-rule="evenodd" style="fill:#2B94FE" opacity="1" d="M39.9999,10.7589c0.16,0.28 0.24,0.6 0.16,0.92v1.44l-0.12,0.12h-10.3199l-0.12,-0.12v-1.12c0,-0.4 0.08,-0.76 0.28,-1.12l2.08,-4.19993h-2.12c0,0 -0.12,-0.04 -0.12,-0.12v-1.47999c0,-0.08 0.12,-0.12 0.12,-0.12h10.1599c0.08,0 0.12,0.12 0.12,0.12v1.47999c0,0.08 -0.04,0.12 -0.12,0.12h-5.7599l-2.28,4.51993c-0.04,0.08 0.04,0.16 0.12,0.16h6.0799c0,0 0.12,-0.04 0.12,-0.12l-0.56,-1.08c-0.08,-0.15995 0.04,-0.35995 0.24,-0.35995h1.04c0.28,0 0.56,0.16 0.68,0.39995z"></path><path id="路径 4" fill-rule="evenodd" style="fill:#2B94FE" opacity="1" d="M19.08,4.47949c0.08,0 0.12,0.04 0.12,0.12001v6.4002c0,0.08 -0.04,0.12 -0.12,0.12h-0.96c-0.08,0 -0.12,-0.04 -0.12,-0.12v-6.4002c0,-0.08001 0.04,-0.12001 0.12,-0.12001z"></path><path id="路径 5" fill-rule="evenodd" style="fill:#2B94FE" opacity="1" d="M14.76,4.47949c0.04,0 0.12,0.04 0.12,0.12001v6.4002c0,0.08 -0.04,0.12 -0.12,0.12h-0.9601c-0.08,0 -0.12,-0.04 -0.12,-0.12v-6.4002c0,-0.08001 0.04,-0.12001 0.12,-0.12001z"></path><path id="路径 6" fill-rule="evenodd" style="fill:#2B94FE" opacity="1" d="M11.76,11.3598c0.04,0 0.12,0.04 0.12,0.12v1.64c0,0.08 -0.04,0.12 -0.12,0.12h-7.08006c-0.08,0 -0.12,-0.04 -0.12,-0.12v-1.32c0,-0.32 0.08,-0.6 0.24,-0.88l4.36003,-8.28003c0.04,-0.08 -0.04,-0.16 -0.12,-0.16h-4.08003c-0.08,0 -0.12,-0.12 -0.12,-0.12v-1.48c0,-0.08 0.04,-0.12 0.12,-0.12h6.52006c0.08,0 0.12,0.04 0.12,0.12v1.04c-0.04,0.4 -0.12,0.76 -0.32,1.12001l-4.40005,8.16002c-0.04,0.08 0.04,0.16 0.12001,0.16z"></path><path id="路径 7" fill-rule="evenodd" style="fill:#2B94FE" opacity="1" d="M3.20005,0.63965c0.08,0 0.12,0.08 0.12,0.16v12.32015c0,0.08 -0.04,0.12 -0.12,0.12h-1.68002c-0.08001,0 -0.12001,-0.04 -0.12001,-0.12v-9.20011c0,-0.12 -0.12,-0.16 -0.2,-0.08l-1.00002,1.08001c-0.08,0.08001 -0.2,0.04001 -0.2,-0.08v-2.16002c0,0 0.04,-0.04001 0.04,-0.08001l1.40002,-1.92002c0,-0.04 0.04,-0.04 0.08001,-0.04z"></path><path id="路径 8" fill-rule="evenodd" style="fill:#2B94FE" opacity="1" d="M29.9999,2.39964c0,0 -0.12,-0.08 -0.12,-0.16v-1.47999c0,-0.08 0.12,-0.12 0.12,-0.12h9.92c0,0 0.12,0.04 0.12,0.12v1.51999c0,0.08 -0.12,0.12 -0.12,0.12z"></path><path id="路径 9" fill-rule="evenodd" style="fill:#2B94FE" opacity="1" d="M27.7199,0.64c0.08,0 0.12,0.04 0.12,0.12v5.35997c0,0.08 -0.04,0.12 -0.12,0.12h-7.16c-0.08,0 -0.12,-0.04 -0.12,-0.12v-1.47999c0,-0.08 0.04,-0.12 0.12,-0.12h1.8h3.76c0.08,0 0.12,-0.04 0.12,-0.12v-1.87999c0,-0.08 -0.04,-0.12 -0.12,-0.12h-3.96c-0.08,0 -0.12,0.04 -0.12,0.12v0.92c0,0.08 -0.04,0.12 -0.12,0.12h-1.36c-0.08,0 -0.12,-0.04 -0.12,-0.12v-3.31998c0,-0.08 0.04,-0.12 0.12,-0.12h1.36c0.08,0 0.12,0.04 0.12,0.12v0.4c0,0.08 0.04,0.12 0.12,0.12z"></path><path id="路径 10" fill-rule="evenodd" style="fill:#2B94FE" opacity="1" d="M19.12,1.43999c0.04,0 0.12,0.04 0.12,0.12v1.15999c0,0.08 -0.04,0.12 -0.12,0.12h-1.72c-0.08,0 -0.12,0.12 -0.12,0.12v10.15992c0,0.08 -0.04,0.12 -0.12,0.12h-1.36c-0.08,0 -0.12,-0.04 -0.12,-0.12v-10.15992c0,0 -0.04,-0.12 -0.12,-0.12h-1.72c-0.08,0 -0.12,-0.04 -0.12,-0.12v-1.15999c0,-0.08 0.04,-0.12 0.12,-0.12h1.72c0.08,0 0.12,-0.12 0.12,-0.12v-1.19999c0,-0.08 0.04,-0.12 0.12,-0.12h1.36c0.08,0 0.12,0.04 0.12,0.12v1.19999c0,0 0.04,0.12 0.12,0.12z"></path></g><g opacity="1"  transform="translate(33.201171875 15.9599609375)  rotate(0)"><path id="路径 11" fill-rule="evenodd" style="fill:#2B94FE" opacity="1" d="M0.04 0.0800781L0.04 3.24007L2 3.24007L2 2.68007L0.64 2.68007L0.64 1.84007L1.76 1.84007L1.76 1.32007L0.64 1.32007L0.64 0.600076L1.96 0.600076L1.96 0.0800781L0 0.0800781L0.04 0.0800781Z"></path><path id="路径 12" fill-rule="evenodd" style="fill:#2B94FE" opacity="1" d="M5.27995,2.44003h-1.03998l-0.24,0.79998h-0.63998l0.99998,-3.15993h0.79998l0.99999,3.15993h-0.63999zM4.79996,0.52007zM4.79996,0.52007c-0.08,0.35999 -0.16,0.71998 -0.27999,1.03998l-0.08,0.35999h0.71998l-0.07999,-0.35999c-0.08,-0.32 -0.2,-0.67999 -0.28,-1.03998z"></path><path id="路径 13" fill-rule="evenodd" style="fill:#2B94FE" opacity="1" d="M9.03998 3.23996C9.47997 3.23996 9.87997 3.07996 10.08 2.87997L10.08 1.44L8.95999 1.44L8.95999 1.95999L9.51997 1.95999L9.51997 2.59997C9.43998 2.67997 9.27998 2.71997 9.11998 2.71997C8.52 2.71997 8.2 2.31998 8.2 1.64C8.2 0.960015 8.56 0.560026 9.07998 0.560026C9.35998 0.560026 9.51997 0.680022 9.67997 0.840018L9.99996 0.440029C9.79997 0.240034 9.47997 0.0400391 9.03998 0.0400391C8.2 0.0400391 7.52002 0.640024 7.52002 1.68C7.52002 2.71997 8.16 3.27996 9.03998 3.23996Z"></path><path id="路径 14" fill-rule="evenodd" style="fill:#2B94FE" opacity="1" d="M11.92 3.24L13.84 3.24L13.84 2.72001L12.56 2.72001L12.56 0.0800781L11.92 0.0800781L11.92 3.24Z"></path><path id="路径 15" fill-rule="evenodd" style="fill:#2B94FE" opacity="1" d="M15.5601 3.24013L17.5201 3.24013L17.5201 2.68012L16.1601 2.68012L16.1601 1.84011L17.2801 1.84011L17.2801 1.3201L16.1601 1.3201L16.1601 0.600087L17.4801 0.600087L17.4801 0.0800781L15.5601 0.0800781L15.5601 3.24013Z"></path><path id="路径 16" fill-rule="evenodd" style="fill:#2B94FE" opacity="1" d="M22.84 3.28005C23.24 3.28005 23.6 3.12005 23.84 2.80005L23.52 2.40005C23.36 2.60005 23.16 2.72005 22.88 2.72005C22.36 2.72005 22.04 2.32005 22.04 1.64005C22.04 0.960044 22.4 0.560042 22.88 0.560042C23.08 0.560042 23.28 0.680042 23.44 0.840043L23.76 0.440041C23.56 0.24004 23.24 0.0400391 22.84 0.0400391C22.04 0.0400391 21.36 0.640042 21.36 1.68005C21.36 2.72005 22.04 3.28005 22.84 3.28005Z"></path><path id="路径 17" fill-rule="evenodd" style="fill:#2B94FE" opacity="1" d="M25.52 3.24L27.44 3.24L27.44 2.72001L26.16 2.72001L26.16 0.0800781L25.52 0.0800781L25.52 3.24Z"></path><path id="路径 18" fill-rule="evenodd" style="fill:#2B94FE" opacity="1" d="M28.8401,1.63997c0,-1.03998 0.56,-1.63997 1.4,-1.63997c0.8399,0 1.3999,0.59999 1.3999,1.63997c0,1.03998 -0.56,1.63996 -1.3999,1.63996c-0.84,0 -1.4,-0.59998 -1.4,-1.63996zM30.2401,0.55999c-0.48,0 -0.76,0.39999 -0.76,1.07998c0,0.67998 0.28,1.11997 0.76,1.11997c0.48,0 0.76,-0.43999 0.76,-1.11997c0,-0.67999 -0.28,-1.07998 -0.76,-1.07998z"></path><path id="路径 19" fill-rule="evenodd" style="fill:#2B94FE" opacity="1" d="M34.6801 3.28015C35.4401 3.28015 35.8801 2.84014 35.8801 1.80011L35.8801 0.0800781L35.2801 0.0800781L35.2801 1.88012C35.2801 2.52013 35.0401 2.76013 34.6801 2.76013C34.3201 2.76013 34.0801 2.52013 34.0801 1.88012L34.0801 0.0800781L33.4401 0.0800781L33.4401 1.80011C33.4401 2.88014 33.9201 3.28015 34.6801 3.28015Z"></path><path id="路径 20" fill-rule="evenodd" style="fill:#2B94FE" opacity="1" d="M37.8401,0.08008h0.88c0.96,0 1.56,0.48001 1.56,1.56003c0,1.04002 -0.6,1.60003 -1.52,1.60003h-0.88v-3.16006zM39.6001,1.64011c0,-0.76001 -0.36,-1.04002 -0.96,-1.04002h-0.2v2.12004h0.2c0.6,0 0.96,-0.32 0.96,-1.08002z"></path></g></g></g></g><defs><rect id="path_0" x="0" y="0" width="73.5199966430664" height="19.440000534057617" /></defs></svg>