<?xml version="1.0" encoding="UTF-8"?> <svg xmlns="http://www.w3.org/2000/svg" viewBox="0 0 2834.65 758.12"><defs><style>.cls-1{fill:#003285;}</style></defs><g id="Layer_2" data-name="Layer 2"><g id="Layer_1-2" data-name="Layer 1"><g id="Hillstone_New_Blue" data-name="Hillstone New Blue"><g id="Hillstone_2-color_Logo" data-name="Hillstone 2-color Logo"><path class="cls-1" d="M2799.05,393Q2760,464,2701.92,502.7T2577,541.39a162.88,162.88,0,0,1-69.06-14.86,150.36,150.36,0,0,1-54.69-42.64,166.66,166.66,0,0,1-32.71-64.34c-6-23.86-7.29-49.11-3.57-76a225.62,225.62,0,0,1,24.6-76,234.11,234.11,0,0,1,50.37-64.3,222.41,222.41,0,0,1,66-42.1,194.17,194.17,0,0,1,73.68-14.7q56.3,0,97.22,30.7t61.68,89.46l-197.7,125.56-35.66-70,107.45-69.41a68,68,0,0,0-18.41-9.6,69.51,69.51,0,0,0-20.86-3.11c-22.88,0-43.72,9-62.15,26.82-18.71,18-29.69,40-33.31,66.05-3.62,26.59,1.19,48.93,14.6,67s31.56,27.06,54.58,27.06c21.39,0,42.33-6.59,62.61-20s38.64-32.75,55.19-58.21L2799.05,393"></path><path class="cls-1" d="M699.52,77.92c-2.29,16.4-17.71,29.77-34.39,29.77h-49c-16.63,0-28.31-13.37-26-29.77L597,29.77C599.31,13.32,614.64,0,631.4,0h48.92c16.7,0,28.36,13.32,26,29.77l-6.82,48.15"></path><polygon class="cls-1" points="557.84 0 554.2 24.21 484.72 516.02 481 540.74 366.38 540.74 398.01 316.56 188.84 316.56 157.2 540.74 42.34 540.74 45.82 515.75 115.05 24.81 118.77 0 233.51 0 202.36 220.42 411.52 220.42 442.61 0 557.84 0"></polygon><polygon class="cls-1" points="580.76 146.68 690.03 146.68 634.32 541.39 525.04 541.39 580.76 146.68"></polygon><polygon class="cls-1" points="785.34 541.39 676.09 541.39 752.42 0.66 861.69 0.66 785.34 541.39"></polygon><path class="cls-1" d="M1535.23,231.47H1635L1647,146.68h-99.81l20.61-146h-84.39s-6.24-.73-17.29,8.9-11.22,16.52-11.22,16.52l-17,120.6H1144.28q-64.17,0-92.78,20.54-48,34.72-56.4,94c-2.94,20.79-1.45,40.19,4.46,58.06S1015,351.46,1028,362a90.43,90.43,0,0,0,36.15,17.33q20.11,4.77,58.57,4.77h65.82c24.67,0,40.16,1.73,46.54,5.1,11.77,6.19,16.45,17.36,14.16,33.73q-4.11,29.29-33.39,32.55-13.17,1.13-49.06,1.12H948.35L1012.74.66H928.47S921.55-.56,910.64,9,900,25.56,900,25.56L830.69,516.21a23,23,0,0,0,5.63,17.14,22.39,22.39,0,0,0,15.86,8h334q59.34,0,86.43-9.14c17.91-6.07,34.32-18.31,49.08-36.82,19.23-24,30.87-50.37,34.91-78.83q7.92-56.7-27.43-86Q1297.32,304,1236,304h-64.3q-43.25,0-51.77-6.26-16.4-11-13.37-31.75c2.29-16.71,10-27.18,23-31.4,6.38-2,20.54-3.11,42.45-3.11h253.9L1403,393.55q-11.25,79.8,14,113.87t96.12,34h79L1604,457h-42.8c-23.18,0-38.57-6.4-46-19.42-4.86-8.67-4.86-29.84-.17-63.38l20.22-142.71"></path><path class="cls-1" d="M2421.39,172.1l-48.57,344.29-4.11,25H2260l43.77-309.92h-93.6c-19.58,0-34.3,4.25-44.16,12.87s-16.12,22.62-18.87,42l-36,255H2001.89l34.25-242.7q11.64-82.58,58.6-120.26c15-12.12,31-20.46,48.37-25s41.56-6.78,72.73-6.78h183.82s7.85-.75,15.75,8.43,6,17,6,17"></path><path class="cls-1" d="M1994,434.87q-7.45,53-35.37,79.79T1883,541.36H1700.81c-32.23,0-55.1-8.92-68.79-26.7s-18-44.46-13-79.79l25.63-181q7.75-54.46,35.3-80.77t76.71-26.31h182.1c32.75,0,55.76,8.71,68.85,26.07s17.17,44.44,12,81l-25.56,181m-267.58,13.51h157.31l29.64-209.51h-157.3Z"></path><path class="cls-1" d="M2680.79,709.76l27.68-2.8c1.64,9.2,5,16,10.09,20.32s12,6.47,20.62,6.47c9.15,0,16-1.87,20.69-5.74s7-8.34,7-13.46a12.79,12.79,0,0,0-3-8.48c-1.91-2.41-5.33-4.42-10.21-6.15-3.22-1.17-10.86-3.22-22.64-6.17-15.11-3.73-25.79-8.31-31.94-13.88-8.62-7.73-13-17.21-13-28.33a35.57,35.57,0,0,1,6.17-20.17c4-6.26,9.81-11,17.5-14.27s16.74-4.93,27.61-4.93q26.32,0,39.7,11.77c8.94,7.78,13.57,18.18,14,31.29l-28.39,1c-1.26-7.33-3.86-12.56-7.78-15.79s-10-4.74-17.9-4.74c-8.22,0-14.65,1.73-19.27,5.09a10.59,10.59,0,0,0-4.51,8.81,10.94,10.94,0,0,0,4.25,8.6c3.55,3,12.22,6.19,26.05,9.39s23.94,6.66,30.56,10.21a39.35,39.35,0,0,1,15.51,14.28c3.74,6,5.56,13.55,5.56,22.49a41.4,41.4,0,0,1-6.7,22.69,40.71,40.71,0,0,1-19,15.73c-8.25,3.38-18.44,5.11-30.68,5.11-17.76,0-31.48-4.06-41-12.31s-15.19-20.33-17-36"></path><polygon class="cls-1" points="43.84 758.12 43.84 617.36 71.46 617.36 129.33 711.65 129.33 617.36 155.74 617.36 155.74 758.12 127.18 758.12 70.2 665.67 70.2 758.12 43.84 758.12"></polygon><polygon class="cls-1" points="423.15 758.12 423.15 617.36 527.38 617.36 527.38 641.11 451.58 641.11 451.58 672.33 521.98 672.33 521.98 696.18 451.58 696.18 451.58 734.34 530.21 734.34 530.21 758.12 423.15 758.12"></polygon><polygon class="cls-1" points="839.35 758.12 839.35 641.11 797.86 641.11 797.86 617.36 909.28 617.36 909.28 641.11 867.81 641.11 867.81 758.12 839.35 758.12"></polygon><polygon class="cls-1" points="1171.24 758.12 1138.27 617.36 1167.49 617.36 1188.34 714.05 1213.9 617.36 1248.17 617.36 1272.59 715.72 1294.01 617.36 1322.64 617.36 1288.76 758.12 1258.06 758.12 1230.3 652.82 1202.45 758.12 1171.24 758.12"></polygon><path class="cls-1" d="M1539.1,686.07q0-21.52,6.43-36.24a65.89,65.89,0,0,1,13.16-19.28,52.48,52.48,0,0,1,18.2-12.73c8.71-3.81,18.85-5.63,30.25-5.63q31.18,0,49.84,19.3t18.6,53.88c0,22.73-6.19,40.61-18.49,53.43s-28.87,19.32-49.52,19.32c-20.92,0-37.62-6.38-49.91-19.15s-18.56-30.49-18.56-52.9m29.24-1c0,16.06,3.69,28.09,11.07,36.38s16.75,12.31,28.08,12.31,20.73-4,27.94-12.24,11-20.39,11-36.86q0-24.23-10.69-36.2c-7-8-16.43-11.93-28.23-11.93s-21.19,4-28.4,12.07-10.75,20.21-10.75,36.47"></path><path class="cls-1" d="M1921,758.12V617.35h59.74c15,0,25.94,1.19,32.71,3.77a32.35,32.35,0,0,1,16.4,13.45,40.9,40.9,0,0,1,6.13,22.18q0,15.87-9.3,26.14c-6.19,6.84-15.38,11.24-27.69,13a67.41,67.41,0,0,1,15.26,11.82c3.9,4.27,9.29,11.92,16.07,22.9l17.17,27.47h-34l-20.35-30.67c-7.36-11-12.39-17.9-15-20.73a21.42,21.42,0,0,0-8.58-5.86c-3-1.1-7.77-1.68-14.38-1.68h-5.71v58.94H1921m28.43-81.38h21c13.69,0,22.12-.56,25.61-1.79a15.19,15.19,0,0,0,7.92-5.84,18.74,18.74,0,0,0,2.8-10.57c0-4.69-1.19-8.5-3.73-11.39s-6.11-4.73-10.75-5.57c-2.24-.37-9.16-.44-20.63-.44h-22.18Z"></path><polygon class="cls-1" points="2297.56 758.12 2297.56 617.36 2325.92 617.36 2325.92 679.71 2383.63 617.36 2421.8 617.36 2368.67 672.14 2424.68 758.12 2387.83 758.12 2348.8 692.14 2325.92 715.65 2325.92 758.12 2297.56 758.12"></polygon><rect class="cls-1" y="571.3" width="2834.65" height="16.95"></rect></g></g></g></g></svg> 