<svg xmlns="http://www.w3.org/2000/svg" viewBox="0 0 228.56 76.4"><defs><style>.cls-1{fill:#231815;}.cls-2{fill:#d80c18;}</style></defs><g id="图层_2" data-name="图层 2"><g id="图层_1-2" data-name="图层 1"><path class="cls-1" d="M125.45,60.76c0,.73-.81,3.3-2.45,7.72s-2.45,6.92-2.45,7.5h-3.24a25.74,25.74,0,0,0-1.49-5.2,40.38,40.38,0,0,1-1.78-6h-.21a47.38,47.38,0,0,1-1.64,6.09A29.48,29.48,0,0,0,110.84,76h-3.32q0-1.1-2.41-7.82a58.18,58.18,0,0,1-2.42-7.4h3.89a46.2,46.2,0,0,0,1.4,5.87,40.35,40.35,0,0,1,1.4,6.09h.19a35.89,35.89,0,0,1,1.5-6,35.89,35.89,0,0,0,1.5-6h3.5a39.74,39.74,0,0,0,1.49,6.08,47.22,47.22,0,0,1,1.5,5.88h.2A38.89,38.89,0,0,1,120.61,67,31.92,31.92,0,0,0,122,60.76Z"/><path class="cls-1" d="M131.53,76h-3.47q.16-3.63.16-8t-.16-7.26h3.47c-.1,2-.16,4.38-.16,7.26S131.43,73.61,131.53,76Z"/><path class="cls-1" d="M148.94,76h-3q0-.48-3.38-5.06-3.53-4.83-4-6.61h-.2a38.2,38.2,0,0,1,.31,4.63c0,1.93.06,4.27.17,7h-3c.12-2.42.19-5.07.19-8s-.07-5.26-.19-7.26h3.65q0,.62,3,4.95c2.15,3.06,3.38,5.13,3.7,6.23h.19a41.41,41.41,0,0,1-.3-4.68c0-2.11,0-4.28-.17-6.5h3.07q-.16,2.9-.17,7.26T148.94,76Z"/><path class="cls-1" d="M156.65,76h-3.47c.1-2.42.16-5.07.16-8s-.06-5.26-.16-7.26h3.47q-.17,2.94-.16,7.26T156.65,76Z"/><path class="cls-1" d="M172.33,73.21l-.21,2.69a15.71,15.71,0,0,1-3.44.39c-2.81,0-4.94-.73-6.41-2.21a7.34,7.34,0,0,1-2.2-5.38A8,8,0,0,1,162.4,63a8.49,8.49,0,0,1,6.42-2.43,11.8,11.8,0,0,1,2.83.33l-.43,2.7a9.31,9.31,0,0,0-2.77-.45,4.47,4.47,0,0,0-3.71,1.51A5.92,5.92,0,0,0,165,72.1a5.16,5.16,0,0,0,4,1.61A12.57,12.57,0,0,0,172.33,73.21Z"/><path class="cls-1" d="M185.9,71.83q0,4.58-6.89,4.57a16.74,16.74,0,0,1-4.36-.54l.6-2.6a12.24,12.24,0,0,0,3.76.65,7.91,7.91,0,0,0,2.82-.36,1.25,1.25,0,0,0,.86-1.22,1.8,1.8,0,0,0-.81-1.49A13.88,13.88,0,0,0,179,69.43a8.81,8.81,0,0,1-2.88-1.73A3.93,3.93,0,0,1,175,64.79a3.66,3.66,0,0,1,1.56-3.14,7.59,7.59,0,0,1,4.5-1.13,17.76,17.76,0,0,1,4,.38l-.45,2.6a10.73,10.73,0,0,0-3.59-.58c-1.93,0-2.89.49-2.89,1.48a1.5,1.5,0,0,0,.67,1.27,14,14,0,0,0,2.57,1.18,9.92,9.92,0,0,1,3.14,1.78A4.21,4.21,0,0,1,185.9,71.83Z"/><path class="cls-1" d="M199.75,71.83q0,4.58-6.9,4.57a16.72,16.72,0,0,1-4.35-.54l.6-2.6a12.18,12.18,0,0,0,3.75.65,8,8,0,0,0,2.83-.36,1.25,1.25,0,0,0,.86-1.22,1.8,1.8,0,0,0-.81-1.49,14.17,14.17,0,0,0-2.84-1.41A8.81,8.81,0,0,1,190,67.7a3.89,3.89,0,0,1-1.19-2.91,3.66,3.66,0,0,1,1.56-3.14,7.55,7.55,0,0,1,4.5-1.13,17.82,17.82,0,0,1,4,.38l-.46,2.6a10.67,10.67,0,0,0-3.58-.58c-1.93,0-2.9.49-2.9,1.48a1.51,1.51,0,0,0,.68,1.27,14.14,14.14,0,0,0,2.56,1.18,9.69,9.69,0,0,1,3.14,1.78A4.18,4.18,0,0,1,199.75,71.83Z"/><path class="cls-1" d="M213.71,73.41l-.1,2.57H203.17c.1-2.35.16-5,.16-8s-.06-5.26-.16-7.26h10L213,63.32c-2.46-.12-4.68-.19-6.68-.19.08,1.09.12,2.36.12,3.84,1.71,0,3.54,0,5.49-.13v2.44c-1.91-.08-3.74-.11-5.49-.11,0,1.58,0,3.06.1,4.44Q209.9,73.61,213.71,73.41Z"/><path class="cls-1" d="M228.56,73.21l-.21,2.69a15.63,15.63,0,0,1-3.43.39c-2.81,0-4.95-.73-6.41-2.21a7.35,7.35,0,0,1-2.21-5.38A8,8,0,0,1,218.64,63a8.49,8.49,0,0,1,6.41-2.43,11.82,11.82,0,0,1,2.84.33l-.43,2.7a9.36,9.36,0,0,0-2.77-.45A4.46,4.46,0,0,0,221,64.64a5.6,5.6,0,0,0-1.22,3.65,5.51,5.51,0,0,0,1.45,3.81,5.16,5.16,0,0,0,4,1.61A12.5,12.5,0,0,0,228.56,73.21Z"/><path class="cls-1" d="M136.75,51.41c-2.69,0-4.83-1.85-6.4-5.55-1.68,1.79-3.48,3.59-5.38,5.39a14.11,14.11,0,0,0-1.18-1,15.43,15.43,0,0,0-2.36-2L122.78,47c-.45-.23-1.07-.56-1.85-1a7.3,7.3,0,0,1-1.35-.68A42.3,42.3,0,0,1,111,50.57a6.26,6.26,0,0,1-.85-1.18,16,16,0,0,0-1.85-2.52,28.13,28.13,0,0,0,7.58-3.7l-5.39-3a41.54,41.54,0,0,0,2.19-5.39H109q-.35,11.11-3.88,16.83a6.66,6.66,0,0,0-1.17-.84,20.2,20.2,0,0,0-2.7-2,20.86,20.86,0,0,0,2.7-7.07,65.17,65.17,0,0,0,.67-10.94V17.08h21.54q-.17-2.19-.16-5.9h4.71v5.9h4.88a39,39,0,0,0-3-3.71l3.7-1a40,40,0,0,1,3.54,4.38l-1,.34H142v4.2H130.86q.49,9.6,1.18,13.81A58.39,58.39,0,0,0,136.24,24l4.38,1.51a54.23,54.23,0,0,1-7.07,15.82,6.62,6.62,0,0,1,.51,1.52q1,3.7,2.35,3.7c.56,0,1-.39,1.18-1.18a3,3,0,0,1,.17-.67q.51-4,.67-6.06a44.42,44.42,0,0,0,4,1.85,7.32,7.32,0,0,1-.17,1.18,45.56,45.56,0,0,1-1.17,5.89Q140.11,51.41,136.75,51.41Zm-26.26-23.9V24H124.8v3.53h-9.26l3.7.51a5.16,5.16,0,0,0-.33,1,10.34,10.34,0,0,1-.68,2h7.24v3.7a20.23,20.23,0,0,1-3.2,7.41L125.64,44l-1,1.68q1.35-1.52,3.53-4.21c-.22.23,0,0,.51-.67q-1.68-5.89-2.36-19.53H109v9.77h5c.11-.45.27-1.07.5-1.85a9.7,9.7,0,0,1,.34-1.69Zm10.77,7.24h-4.37a25.4,25.4,0,0,1-1.52,3.87l3.37,1.68A16.43,16.43,0,0,0,121.26,34.75Z"/><path class="cls-1" d="M183.54,33.23A40.43,40.43,0,0,1,174,28.86a37.44,37.44,0,0,1-7.58,3.36,4.49,4.49,0,0,1-.5-.67,24.35,24.35,0,0,0-1.85-3.2l-1.85,3.54-5-2.69c-2.25,1.9-5.67,3.59-10.27,5l-.51-1c-.56-1.23-1.06-2.24-1.51-3A24.83,24.83,0,0,0,152.91,27l-3-1.52c-1.46-.67-2.53-1.18-3.2-1.51A39.87,39.87,0,0,0,149,19.1h-3.71V15.22h5.39c.56-1.34,1.06-2.69,1.51-4l4.72.34-1.52,3.7H164v4.21A27.54,27.54,0,0,1,160.31,26a6.86,6.86,0,0,1,1.35.67L164.35,28l-.16.33c.33-.11.89-.28,1.68-.5A45,45,0,0,0,170.41,26a31.73,31.73,0,0,1-4.88-7.07l2.53-1.35h-2.7v-4h17.85v4.21a23.08,23.08,0,0,1-5.73,8.42A41,41,0,0,0,185.39,29a8,8,0,0,1-.84,1.85C184.1,31.89,183.77,32.67,183.54,33.23ZM165.7,50.91a12.6,12.6,0,0,0-1-4.38c1,0,2.41.06,4.21.17h3.7q3.71,0,3.7-3.37c0-.44.06-1.17.17-2.18V39.63H164q-1.7,8.09-16.16,12.12A30.43,30.43,0,0,0,145,47.21q11.77-2.19,13.63-7.58H147.35V35.42h12.46a15.79,15.79,0,0,0,.34-3.36h5.21l-.5,3.36h17l-.34,8.25q-.17,7.23-8.08,7.07Q170.76,50.91,165.7,50.91ZM159.47,19.1h-5.89l-1.51,3.19c.44.23,1.17.57,2.18,1l2,1A16,16,0,0,0,159.47,19.1Zm19-1.52h-8.75a18.49,18.49,0,0,0,4.38,5.89A18,18,0,0,0,178.49,17.58Z"/><path class="cls-1" d="M190.78,30.37a21.84,21.84,0,0,1-3.37-1.17,78.64,78.64,0,0,0,2.19-14.14l3.2.33c-.11,1.69-.28,3.37-.51,5.05h2.53V11.35h4.54v9.09h3.54v4.38h-3.54v7.57c.45-.11,1-.28,1.69-.5a10.84,10.84,0,0,0,1.68-.34c0,.67.06,1.63.17,2.86v2l-3.54.84V51.58h-4.54V38.45c-.79.23-2.08.57-3.87,1-1.24.34-2.19.62-2.86.84l-.34-5.38a61.36,61.36,0,0,0,7.07-1.52V24.82h-3C191.45,26.84,191.12,28.69,190.78,30.37Zm14.31-9.93V16.23h8.08V11.35h5.05v4.88h8.24v4.21h-8.24v4.38h10.1V29.2H203.4V24.82h9.77V20.44Zm-1.18,17.17V33.23h14.64V30.37h4.88v2.86h4.72v4.38h-4.72v7.91c.11,3.71-1.62,5.56-5.21,5.56q-2,.16-6.06.17c-.12-.57-.28-1.35-.51-2.36s-.39-1.74-.5-2.19H216c1.79,0,2.63-.78,2.52-2.36V37.61Zm5.89,8.75a47.92,47.92,0,0,0-4.88-5.72l3.2-2.69a49.88,49.88,0,0,1,5.38,5.55Z"/><polygon class="cls-2" points="40.91 14.53 31.74 35.47 23.46 14.75 11.63 14.75 25.67 50.3 38.39 50.3 47.55 28.8 53.62 14.53 40.91 14.53"/><path class="cls-2" d="M43,63.08c-28.2,6.06-35.33.71-35.35.7s13.54,10.39,38.82,4.33S86.7,44.37,90.68,39.34c0,0-19.41,17.68-47.66,23.74"/><path class="cls-2" d="M20.67,72.79S37,80.59,58.27,73A58,58,0,0,0,88.6,48S67.12,75.39,20.67,72.79"/><rect class="cls-2" x="27.75" y="8.32" width="4.73" height="4.88"/><rect class="cls-2" x="34.84" y="13.85" width="2.96" height="3.05"/><rect class="cls-2" x="38.42" y="2.4" width="4.88" height="4.73"/><rect class="cls-2" x="19.52" width="3.05" height="2.96"/><path class="cls-2" d="M72.17,42.3A144.88,144.88,0,0,1,55.5,48.93c-21.66,7.06-39,6.43-44,.12-8.15-10.23,2.77-21.84,2.77-21.84C10.1,31-.82,36.05.05,49.22s18.54,13,18.54,13c49.22.34,80.24-35.7,80.24-35.7A167.91,167.91,0,0,1,72.17,42.3"/><path class="cls-2" d="M54.25,45.77l1.25-.4a144.88,144.88,0,0,0,16.67-6.63l1.91-.93L84,14.53H71.27L62.11,35.47,53.73,14.53H41.9L47.55,28.8Z"/></g></g></svg>